<svg width="24" height="24" viewBox="0 0 24 24" fill="none" xmlns="http://www.w3.org/2000/svg">
<path d="M9.10315 2.81836C9.49073 2.23763 10.2726 2.07588 10.859 2.45508L11.9606 3.16797C12.5586 3.55488 12.7246 4.3556 12.3297 4.94824L11.1198 6.76367C10.9098 7.07802 10.4989 7.18664 10.1608 7.01758L8.02795 5.95117C7.83554 5.85497 7.69352 5.68057 7.63831 5.47266C7.58323 5.26485 7.61963 5.04315 7.73889 4.86426L9.10315 2.81934V2.81836Z" stroke="#B8B5C1" stroke-width="1.5" stroke-linecap="round" stroke-linejoin="round"/>
<path d="M11.9751 4.67712C12.3626 4.09607 13.1454 3.93439 13.7319 4.31384L14.8335 5.02673C15.4313 5.41365 15.5974 6.21442 15.2026 6.80701L14.2036 8.30505C13.9938 8.61968 13.5829 8.72899 13.2446 8.55994L11.1118 7.49353C10.9194 7.39733 10.7774 7.22292 10.7221 7.01501C10.6669 6.80712 10.7034 6.5856 10.8227 6.40662L11.9751 4.6781V4.67712Z" stroke="#B8B5C1" stroke-width="1.5" stroke-linecap="round" stroke-linejoin="round"/>
<path d="M15.3418 6.81836C15.7294 6.23731 16.5121 6.07561 17.0986 6.45508L17.9736 7.02051C18.5716 7.4074 18.7376 8.20913 18.3428 8.80176L16.5557 11.4814C16.2105 11.9988 15.543 12.1929 14.9746 11.9404L14.0088 11.5107C13.2853 11.1892 13.0259 10.2935 13.4648 9.63477L15.3418 6.81934V6.81836Z" stroke="#B8B5C1" stroke-width="1.5" stroke-linecap="round" stroke-linejoin="round"/>
<path d="M18.0664 8.81836C18.4298 8.27379 19.1404 8.09705 19.7109 8.38965L19.8232 8.45508L20.6973 9.02051C21.2952 9.40744 21.4616 10.209 21.0664 10.8018L19.5557 13.0674C19.2105 13.5851 18.5431 13.7789 17.9746 13.5264L17.0088 13.0967C16.2854 12.7751 16.0259 11.8804 16.4648 11.2217L18.0664 8.81934V8.81836Z" stroke="#B8B5C1" stroke-width="1.5" stroke-linecap="round" stroke-linejoin="round"/>
<path d="M5.89062 6.81934C6.22563 6.31683 6.86296 6.12091 7.41602 6.33594L7.52539 6.38477L11.791 8.51758C12.4781 8.86114 12.7094 9.72982 12.2832 10.3691L11.96 10.8525C11.9018 10.9397 11.8334 11.0179 11.7578 11.0869L16.583 13.2314C16.6907 13.2793 16.8027 13.3027 16.9199 13.3027H16.9209C17.1538 13.3026 17.3714 13.2062 17.5273 13.0391C17.7375 12.8138 18.064 12.7407 18.3506 12.8535C18.6372 12.9664 18.8261 13.2427 18.8262 13.5508V15.0947C18.8261 16.3881 18.1826 17.5902 17.1064 18.3076C17.0135 18.3696 16.9348 18.422 16.8779 18.46V21.1553C16.8779 21.8607 16.306 22.4326 15.6006 22.4326H7.625C6.79436 22.4323 6.18535 21.6517 6.38672 20.8457L7.32422 17.0898L3.50098 11.9277C3.1803 11.4948 3.166 10.9073 3.46484 10.459L5.89062 6.81934Z" stroke="#B8B5C1" stroke-width="1.5" stroke-linecap="round" stroke-linejoin="round"/>
</svg>
