<svg width="24" height="25" viewBox="0 0 24 25" fill="none" xmlns="http://www.w3.org/2000/svg">
<path d="M15 20C15 18.4087 14.3152 16.8826 13.0962 15.7574C11.8772 14.6321 10.2239 14 8.5 14C6.77609 14 5.12279 14.6321 3.90381 15.7574C2.68482 16.8826 2 18.4087 2 20" stroke="#B8B5C1" stroke-width="2" stroke-linecap="round" stroke-linejoin="round"/>
<path d="M8 14C10.2091 14 12 12.2091 12 10C12 7.79086 10.2091 6 8 6C5.79086 6 4 7.79086 4 10C4 12.2091 5.79086 14 8 14Z" stroke="#B8B5C1" stroke-width="2" stroke-linecap="round" stroke-linejoin="round"/>
<path d="M18 19C18 16.3123 16.2022 13.816 14.4045 12.6196C14.9954 12.2263 15.468 11.7097 15.7803 11.1157C16.0926 10.5216 16.2351 9.86847 16.1951 9.21395C16.1551 8.55943 15.9339 7.92375 15.551 7.36317C15.1681 6.80258 14.6354 6.33438 14 6" stroke="#B8B5C1" stroke-width="2" stroke-linecap="round" stroke-linejoin="round"/>
<path d="M22 17C22 14.3123 20.2022 11.816 18.4045 10.6196C18.9954 10.2263 19.468 9.7097 19.7803 9.11567C20.0926 8.52165 20.2351 7.86847 20.1951 7.21395C20.1551 6.55943 19.9339 5.92375 19.551 5.36317C19.1681 4.80258 18.6354 4.33438 18 4" stroke="#B8B5C1" stroke-width="2" stroke-linecap="round" stroke-linejoin="round"/>
</svg>
